<mxfile host="app.diagrams.net" modified="2021-06-12T11:50:22.708Z" agent="5.0 (Windows NT 10.0; Win64; x64) AppleWebKit/537.36 (KHTML, like Gecko) Chrome/91.0.4472.77 Safari/537.36" etag="sRgTI_B_tkXMpbd8yuuf" version="14.7.7" type="github">
  <diagram id="BuuVrnjkzm051dhJfcHI" name="Page-1">
    <mxGraphModel dx="2529" dy="802" grid="1" gridSize="10" guides="1" tooltips="1" connect="1" arrows="1" fold="1" page="1" pageScale="1" pageWidth="1169" pageHeight="1654" math="0" shadow="0">
      <root>
        <mxCell id="0" />
        <mxCell id="1" parent="0" />
        <mxCell id="Lv0ElcuT6AQo6-ZKucd3-36" value="&amp;lt;&amp;lt;Java Class&amp;gt;&amp;gt;&lt;br&gt;&lt;font&gt;&lt;b&gt;View&lt;br&gt;&lt;/b&gt;&lt;/font&gt;&lt;font style=&quot;font-size: 8px&quot;&gt;.../gui&lt;/font&gt;" style="swimlane;fontStyle=0;align=center;verticalAlign=top;childLayout=stackLayout;horizontal=1;startSize=55;horizontalStack=0;resizeParent=1;resizeParentMax=0;resizeLast=0;collapsible=0;marginBottom=0;html=1;" vertex="1" parent="1">
          <mxGeometry x="-630" y="110" width="260" height="200" as="geometry" />
        </mxCell>
        <mxCell id="Lv0ElcuT6AQo6-ZKucd3-39" value="&lt;font style=&quot;font-size: 10px&quot;&gt;&lt;u&gt;- serialVersionUID: long&lt;br&gt;&lt;/u&gt;- districtComboBox: JComboBox&lt;br&gt;- cityResultList: List&lt;br&gt;- districtResultList: List&lt;/font&gt;" style="text;html=1;strokeColor=none;fillColor=none;align=left;verticalAlign=middle;spacingLeft=4;spacingRight=4;overflow=hidden;rotatable=0;points=[[0,0.5],[1,0.5]];portConstraint=eastwest;" vertex="1" parent="Lv0ElcuT6AQo6-ZKucd3-36">
          <mxGeometry y="55" width="260" height="65" as="geometry" />
        </mxCell>
        <mxCell id="Lv0ElcuT6AQo6-ZKucd3-37" value="" style="line;strokeWidth=1;fillColor=none;align=left;verticalAlign=middle;spacingTop=-1;spacingLeft=3;spacingRight=3;rotatable=0;labelPosition=right;points=[];portConstraint=eastwest;" vertex="1" parent="Lv0ElcuT6AQo6-ZKucd3-36">
          <mxGeometry y="120" width="260" height="8" as="geometry" />
        </mxCell>
        <mxCell id="Lv0ElcuT6AQo6-ZKucd3-38" value="&lt;span style=&quot;font-size: 10px&quot;&gt;+ View(Controller)&lt;br&gt;+ printResultOfDistrict(ResultList): void&lt;br&gt;+ printResultOfCity(ResultList): void&lt;br&gt;+ loadComboBoxContent(ArrayList&amp;lt;String&amp;gt;): void&lt;br&gt;+ getComboBoxContent: String&lt;br&gt;&lt;/span&gt;" style="text;html=1;strokeColor=none;fillColor=none;align=left;verticalAlign=middle;spacingLeft=4;spacingRight=4;overflow=hidden;rotatable=0;points=[[0,0.5],[1,0.5]];portConstraint=eastwest;" vertex="1" parent="Lv0ElcuT6AQo6-ZKucd3-36">
          <mxGeometry y="128" width="260" height="72" as="geometry" />
        </mxCell>
        <mxCell id="Lv0ElcuT6AQo6-ZKucd3-44" value="&amp;lt;&amp;lt;Java Class&amp;gt;&amp;gt;&lt;br&gt;&lt;font&gt;&lt;b&gt;Main&lt;br&gt;&lt;/b&gt;&lt;/font&gt;" style="swimlane;fontStyle=0;align=center;verticalAlign=top;childLayout=stackLayout;horizontal=1;startSize=55;horizontalStack=0;resizeParent=1;resizeParentMax=0;resizeLast=0;collapsible=0;marginBottom=0;html=1;" vertex="1" parent="1">
          <mxGeometry x="40" y="20" width="120" height="100" as="geometry" />
        </mxCell>
        <mxCell id="Lv0ElcuT6AQo6-ZKucd3-46" value="" style="line;strokeWidth=1;fillColor=none;align=left;verticalAlign=middle;spacingTop=-1;spacingLeft=3;spacingRight=3;rotatable=0;labelPosition=right;points=[];portConstraint=eastwest;" vertex="1" parent="Lv0ElcuT6AQo6-ZKucd3-44">
          <mxGeometry y="55" width="120" height="8" as="geometry" />
        </mxCell>
        <mxCell id="Lv0ElcuT6AQo6-ZKucd3-47" value="&lt;span style=&quot;font-size: 10px&quot;&gt;+ Main()&lt;br&gt;+ main(String[]): void&lt;br&gt;&lt;/span&gt;" style="text;html=1;strokeColor=none;fillColor=none;align=left;verticalAlign=middle;spacingLeft=4;spacingRight=4;overflow=hidden;rotatable=0;points=[[0,0.5],[1,0.5]];portConstraint=eastwest;" vertex="1" parent="Lv0ElcuT6AQo6-ZKucd3-44">
          <mxGeometry y="63" width="120" height="37" as="geometry" />
        </mxCell>
        <mxCell id="Lv0ElcuT6AQo6-ZKucd3-49" value="" style="swimlane;startSize=0;" vertex="1" parent="1">
          <mxGeometry x="40" y="160" width="240" height="350" as="geometry" />
        </mxCell>
        <mxCell id="Lv0ElcuT6AQo6-ZKucd3-51" value="&amp;lt;&amp;lt;Java Class&amp;gt;&amp;gt;&lt;br&gt;&lt;font&gt;&lt;b&gt;Controller&lt;br&gt;&lt;/b&gt;&lt;/font&gt;&lt;font style=&quot;font-size: 8px&quot;&gt;.../gui&lt;/font&gt;" style="swimlane;fontStyle=0;align=center;verticalAlign=top;childLayout=stackLayout;horizontal=1;startSize=55;horizontalStack=0;resizeParent=1;resizeParentMax=0;resizeLast=0;collapsible=0;marginBottom=0;html=1;" vertex="1" parent="Lv0ElcuT6AQo6-ZKucd3-49">
          <mxGeometry x="20" y="20" width="200" height="63" as="geometry" />
        </mxCell>
        <mxCell id="Lv0ElcuT6AQo6-ZKucd3-52" value="" style="line;strokeWidth=1;fillColor=none;align=left;verticalAlign=middle;spacingTop=-1;spacingLeft=3;spacingRight=3;rotatable=0;labelPosition=right;points=[];portConstraint=eastwest;" vertex="1" parent="Lv0ElcuT6AQo6-ZKucd3-51">
          <mxGeometry y="55" width="200" height="8" as="geometry" />
        </mxCell>
        <mxCell id="Lv0ElcuT6AQo6-ZKucd3-81" value="&amp;lt;&amp;lt;Java Class&amp;gt;&amp;gt;&lt;br&gt;&lt;font&gt;&lt;b&gt;ComboBoxListener&lt;br&gt;&lt;/b&gt;&lt;/font&gt;&lt;font style=&quot;font-size: 8px&quot;&gt;.../gui&lt;/font&gt;" style="swimlane;fontStyle=0;align=center;verticalAlign=top;childLayout=stackLayout;horizontal=1;startSize=55;horizontalStack=0;resizeParent=1;resizeParentMax=0;resizeLast=0;collapsible=0;marginBottom=0;html=1;" vertex="1" parent="Lv0ElcuT6AQo6-ZKucd3-49">
          <mxGeometry x="20" y="120" width="120" height="63" as="geometry" />
        </mxCell>
        <mxCell id="Lv0ElcuT6AQo6-ZKucd3-82" value="" style="line;strokeWidth=1;fillColor=none;align=left;verticalAlign=middle;spacingTop=-1;spacingLeft=3;spacingRight=3;rotatable=0;labelPosition=right;points=[];portConstraint=eastwest;" vertex="1" parent="Lv0ElcuT6AQo6-ZKucd3-81">
          <mxGeometry y="55" width="120" height="8" as="geometry" />
        </mxCell>
        <mxCell id="Lv0ElcuT6AQo6-ZKucd3-85" value="" style="shape=orEllipse;perimeter=ellipsePerimeter;whiteSpace=wrap;html=1;backgroundOutline=1;" vertex="1" parent="Lv0ElcuT6AQo6-ZKucd3-49">
          <mxGeometry x="70" y="83" width="20" height="20" as="geometry" />
        </mxCell>
        <mxCell id="Lv0ElcuT6AQo6-ZKucd3-86" value="&amp;lt;&amp;lt;Java Class&amp;gt;&amp;gt;&lt;br&gt;&lt;font&gt;&lt;b&gt;Model&lt;br&gt;&lt;/b&gt;&lt;/font&gt;&lt;font style=&quot;font-size: 8px&quot;&gt;.../gui&lt;/font&gt;" style="swimlane;fontStyle=0;align=center;verticalAlign=top;childLayout=stackLayout;horizontal=1;startSize=55;horizontalStack=0;resizeParent=1;resizeParentMax=0;resizeLast=0;collapsible=0;marginBottom=0;html=1;" vertex="1" parent="Lv0ElcuT6AQo6-ZKucd3-49">
          <mxGeometry x="20" y="240" width="90" height="63" as="geometry" />
        </mxCell>
        <mxCell id="Lv0ElcuT6AQo6-ZKucd3-88" value="" style="line;strokeWidth=1;fillColor=none;align=left;verticalAlign=middle;spacingTop=-1;spacingLeft=3;spacingRight=3;rotatable=0;labelPosition=right;points=[];portConstraint=eastwest;" vertex="1" parent="Lv0ElcuT6AQo6-ZKucd3-86">
          <mxGeometry y="55" width="90" height="8" as="geometry" />
        </mxCell>
        <mxCell id="Lv0ElcuT6AQo6-ZKucd3-90" value="&amp;lt;&amp;lt;Java Class&amp;gt;&amp;gt;&lt;br&gt;&lt;font&gt;&lt;b&gt;View&lt;br&gt;&lt;/b&gt;&lt;/font&gt;&lt;font style=&quot;font-size: 8px&quot;&gt;.../gui&lt;/font&gt;" style="swimlane;fontStyle=0;align=center;verticalAlign=top;childLayout=stackLayout;horizontal=1;startSize=55;horizontalStack=0;resizeParent=1;resizeParentMax=0;resizeLast=0;collapsible=0;marginBottom=0;html=1;" vertex="1" parent="Lv0ElcuT6AQo6-ZKucd3-49">
          <mxGeometry x="130" y="240" width="90" height="63" as="geometry" />
        </mxCell>
        <mxCell id="Lv0ElcuT6AQo6-ZKucd3-92" value="" style="line;strokeWidth=1;fillColor=none;align=left;verticalAlign=middle;spacingTop=-1;spacingLeft=3;spacingRight=3;rotatable=0;labelPosition=right;points=[];portConstraint=eastwest;" vertex="1" parent="Lv0ElcuT6AQo6-ZKucd3-90">
          <mxGeometry y="55" width="90" height="8" as="geometry" />
        </mxCell>
        <mxCell id="Lv0ElcuT6AQo6-ZKucd3-32" value="&amp;lt;&amp;lt;Java Class&amp;gt;&amp;gt;&lt;br&gt;&lt;font&gt;&lt;b&gt;Controller&lt;br&gt;&lt;/b&gt;&lt;/font&gt;&lt;font style=&quot;font-size: 8px&quot;&gt;.../gui&lt;/font&gt;" style="swimlane;fontStyle=0;align=center;verticalAlign=top;childLayout=stackLayout;horizontal=1;startSize=55;horizontalStack=0;resizeParent=1;resizeParentMax=0;resizeLast=0;collapsible=0;marginBottom=0;html=1;" vertex="1" parent="1">
          <mxGeometry x="-750" y="400" width="190" height="195" as="geometry" />
        </mxCell>
        <mxCell id="Lv0ElcuT6AQo6-ZKucd3-106" value="&lt;span style=&quot;font-size: 10px&quot;&gt;- controller: Controller&lt;br&gt;&lt;/span&gt;" style="text;html=1;strokeColor=none;fillColor=none;align=left;verticalAlign=middle;spacingLeft=4;spacingRight=4;overflow=hidden;rotatable=0;points=[[0,0.5],[1,0.5]];portConstraint=eastwest;" vertex="1" parent="Lv0ElcuT6AQo6-ZKucd3-32">
          <mxGeometry y="55" width="190" height="15" as="geometry" />
        </mxCell>
        <mxCell id="Lv0ElcuT6AQo6-ZKucd3-34" value="" style="line;strokeWidth=1;fillColor=none;align=left;verticalAlign=middle;spacingTop=-1;spacingLeft=3;spacingRight=3;rotatable=0;labelPosition=right;points=[];portConstraint=eastwest;" vertex="1" parent="Lv0ElcuT6AQo6-ZKucd3-32">
          <mxGeometry y="70" width="190" height="8" as="geometry" />
        </mxCell>
        <mxCell id="Lv0ElcuT6AQo6-ZKucd3-35" value="&lt;span style=&quot;font-size: 10px&quot;&gt;- Controller()&lt;br&gt;&lt;u&gt;+ getInstance(): Controller&lt;/u&gt;&lt;br&gt;+ startApplication(): void&lt;br&gt;+ loadData(): void&lt;br&gt;+ printData(): void&lt;br&gt;+ openGUI(): void&lt;br&gt;+ getView(): View&lt;br&gt;+ getModel(): Model&lt;br&gt;&lt;/span&gt;" style="text;html=1;strokeColor=none;fillColor=none;align=left;verticalAlign=middle;spacingLeft=4;spacingRight=4;overflow=hidden;rotatable=0;points=[[0,0.5],[1,0.5]];portConstraint=eastwest;" vertex="1" parent="Lv0ElcuT6AQo6-ZKucd3-32">
          <mxGeometry y="78" width="190" height="117" as="geometry" />
        </mxCell>
        <mxCell id="Lv0ElcuT6AQo6-ZKucd3-40" value="&amp;lt;&amp;lt;Java Class&amp;gt;&amp;gt;&lt;br&gt;&lt;font&gt;&lt;b&gt;Model&lt;br&gt;&lt;/b&gt;&lt;/font&gt;&lt;font style=&quot;font-size: 8px&quot;&gt;.../gui&lt;/font&gt;" style="swimlane;fontStyle=0;align=center;verticalAlign=top;childLayout=stackLayout;horizontal=1;startSize=55;horizontalStack=0;resizeParent=1;resizeParentMax=0;resizeLast=0;collapsible=0;marginBottom=0;html=1;" vertex="1" parent="1">
          <mxGeometry x="-440" y="400" width="190" height="210" as="geometry" />
        </mxCell>
        <mxCell id="Lv0ElcuT6AQo6-ZKucd3-43" value="&lt;span style=&quot;font-size: 10px&quot;&gt;- results: ArrayList&amp;lt;ResultList&amp;gt;&lt;br&gt;- currentDistrictResult: ResultList&lt;br&gt;- model: Model&lt;br&gt;&lt;/span&gt;" style="text;html=1;strokeColor=none;fillColor=none;align=left;verticalAlign=middle;spacingLeft=4;spacingRight=4;overflow=hidden;rotatable=0;points=[[0,0.5],[1,0.5]];portConstraint=eastwest;" vertex="1" parent="Lv0ElcuT6AQo6-ZKucd3-40">
          <mxGeometry y="55" width="190" height="45" as="geometry" />
        </mxCell>
        <mxCell id="Lv0ElcuT6AQo6-ZKucd3-41" value="" style="line;strokeWidth=1;fillColor=none;align=left;verticalAlign=middle;spacingTop=-1;spacingLeft=3;spacingRight=3;rotatable=0;labelPosition=right;points=[];portConstraint=eastwest;" vertex="1" parent="Lv0ElcuT6AQo6-ZKucd3-40">
          <mxGeometry y="100" width="190" height="8" as="geometry" />
        </mxCell>
        <mxCell id="Lv0ElcuT6AQo6-ZKucd3-42" value="&lt;span style=&quot;font-size: 10px&quot;&gt;+ Model()&lt;br&gt;&lt;u&gt;+ getInstance(): Model&lt;br&gt;&lt;/u&gt;+ getResultForDistrict(): ResultList&lt;br&gt;+ getResultForCity: ResultList&lt;br&gt;+ loadDistrict(String): boolean&lt;br&gt;+ readData(ArrayList&amp;lt;ResultList&amp;gt;): void&lt;br&gt;+ getDistrictNames(): ArrayList&amp;lt;String&amp;gt;&lt;br&gt;&lt;/span&gt;" style="text;html=1;strokeColor=none;fillColor=none;align=left;verticalAlign=middle;spacingLeft=4;spacingRight=4;overflow=hidden;rotatable=0;points=[[0,0.5],[1,0.5]];portConstraint=eastwest;" vertex="1" parent="Lv0ElcuT6AQo6-ZKucd3-40">
          <mxGeometry y="108" width="190" height="102" as="geometry" />
        </mxCell>
        <mxCell id="Lv0ElcuT6AQo6-ZKucd3-54" value="&amp;lt;&amp;lt;Java Class&amp;gt;&amp;gt;&lt;br&gt;&lt;font&gt;&lt;b&gt;ComboBoxListener&lt;br&gt;&lt;/b&gt;&lt;/font&gt;&lt;font style=&quot;font-size: 8px&quot;&gt;.../gui&lt;/font&gt;" style="swimlane;fontStyle=0;align=center;verticalAlign=top;childLayout=stackLayout;horizontal=1;startSize=55;horizontalStack=0;resizeParent=1;resizeParentMax=0;resizeLast=0;collapsible=0;marginBottom=0;html=1;" vertex="1" parent="1">
          <mxGeometry x="-750" y="640" width="190" height="100" as="geometry" />
        </mxCell>
        <mxCell id="Lv0ElcuT6AQo6-ZKucd3-55" value="" style="line;strokeWidth=1;fillColor=none;align=left;verticalAlign=middle;spacingTop=-1;spacingLeft=3;spacingRight=3;rotatable=0;labelPosition=right;points=[];portConstraint=eastwest;" vertex="1" parent="Lv0ElcuT6AQo6-ZKucd3-54">
          <mxGeometry y="55" width="190" height="8" as="geometry" />
        </mxCell>
        <mxCell id="Lv0ElcuT6AQo6-ZKucd3-56" value="&lt;span style=&quot;font-size: 10px&quot;&gt;+ ComboBoxListener()&lt;br&gt;+ actionPerformed(ActionEvent e): void&lt;br&gt;&lt;/span&gt;" style="text;html=1;strokeColor=none;fillColor=none;align=left;verticalAlign=middle;spacingLeft=4;spacingRight=4;overflow=hidden;rotatable=0;points=[[0,0.5],[1,0.5]];portConstraint=eastwest;" vertex="1" parent="Lv0ElcuT6AQo6-ZKucd3-54">
          <mxGeometry y="63" width="190" height="37" as="geometry" />
        </mxCell>
        <mxCell id="Lv0ElcuT6AQo6-ZKucd3-57" value="" style="swimlane;startSize=0;" vertex="1" parent="1">
          <mxGeometry x="360" y="160" width="300" height="350" as="geometry" />
        </mxCell>
        <mxCell id="Lv0ElcuT6AQo6-ZKucd3-25" value="&amp;lt;&amp;lt;Java Class&amp;gt;&amp;gt;&lt;br&gt;&lt;b&gt;VotingManager&lt;br&gt;&lt;/b&gt;&lt;span style=&quot;font-size: 8px&quot;&gt;.../application&lt;/span&gt;&lt;b&gt;&lt;br&gt;&lt;/b&gt;" style="swimlane;fontStyle=0;align=center;verticalAlign=top;childLayout=stackLayout;horizontal=1;startSize=55;horizontalStack=0;resizeParent=1;resizeParentMax=0;resizeLast=0;collapsible=0;marginBottom=0;html=1;" vertex="1" parent="Lv0ElcuT6AQo6-ZKucd3-57">
          <mxGeometry x="20" y="20" width="260" height="125" as="geometry" />
        </mxCell>
        <mxCell id="Lv0ElcuT6AQo6-ZKucd3-107" value="&lt;span style=&quot;font-size: 10px&quot;&gt;- votingManager: VotingManager&lt;/span&gt;" style="text;html=1;strokeColor=none;fillColor=none;align=left;verticalAlign=middle;spacingLeft=4;spacingRight=4;overflow=hidden;rotatable=0;points=[[0,0.5],[1,0.5]];portConstraint=eastwest;" vertex="1" parent="Lv0ElcuT6AQo6-ZKucd3-25">
          <mxGeometry y="55" width="260" height="15" as="geometry" />
        </mxCell>
        <mxCell id="Lv0ElcuT6AQo6-ZKucd3-26" value="" style="line;strokeWidth=1;fillColor=none;align=left;verticalAlign=middle;spacingTop=-1;spacingLeft=3;spacingRight=3;rotatable=0;labelPosition=right;points=[];portConstraint=eastwest;" vertex="1" parent="Lv0ElcuT6AQo6-ZKucd3-25">
          <mxGeometry y="70" width="260" height="8" as="geometry" />
        </mxCell>
        <mxCell id="Lv0ElcuT6AQo6-ZKucd3-27" value="&lt;font style=&quot;font-size: 10px&quot;&gt;+ VotingManager()&lt;br&gt;+ getData(): ArrayList&amp;lt;ResultList&amp;gt;&lt;br&gt;&lt;u&gt;+ getInstance(): VotingManager&lt;/u&gt;&lt;/font&gt;" style="text;html=1;strokeColor=none;fillColor=none;align=left;verticalAlign=middle;spacingLeft=4;spacingRight=4;overflow=hidden;rotatable=0;points=[[0,0.5],[1,0.5]];portConstraint=eastwest;" vertex="1" parent="Lv0ElcuT6AQo6-ZKucd3-25">
          <mxGeometry y="78" width="260" height="47" as="geometry" />
        </mxCell>
        <mxCell id="Lv0ElcuT6AQo6-ZKucd3-21" value="&amp;lt;&amp;lt;Java Class&amp;gt;&amp;gt;&lt;br&gt;&lt;b&gt;VotingCalculator&lt;br&gt;&lt;/b&gt;&lt;span style=&quot;font-size: 8px&quot;&gt;.../application&lt;/span&gt;&lt;b&gt;&lt;br&gt;&lt;/b&gt;" style="swimlane;fontStyle=0;align=center;verticalAlign=top;childLayout=stackLayout;horizontal=1;startSize=55;horizontalStack=0;resizeParent=1;resizeParentMax=0;resizeLast=0;collapsible=0;marginBottom=0;html=1;" vertex="1" parent="Lv0ElcuT6AQo6-ZKucd3-57">
          <mxGeometry x="20" y="190" width="260" height="140" as="geometry" />
        </mxCell>
        <mxCell id="Lv0ElcuT6AQo6-ZKucd3-23" value="" style="line;strokeWidth=1;fillColor=none;align=left;verticalAlign=middle;spacingTop=-1;spacingLeft=3;spacingRight=3;rotatable=0;labelPosition=right;points=[];portConstraint=eastwest;" vertex="1" parent="Lv0ElcuT6AQo6-ZKucd3-21">
          <mxGeometry y="55" width="260" height="8" as="geometry" />
        </mxCell>
        <mxCell id="Lv0ElcuT6AQo6-ZKucd3-24" value="&lt;font style=&quot;font-size: 10px&quot;&gt;+ VotingCalculator()&lt;br&gt;+ enrichCandidates(ResultList, ArrayList&amp;lt;String&amp;gt;): void&lt;br&gt;+ calculatePercentage(ResultList): void&lt;br&gt;+ calculateCityResult(ArrayList&amp;lt;ResultList&amp;gt;): ResultList&lt;br&gt;+ getAllNames(ArrayList&amp;lt;ResultList&amp;gt;): ArrayList&amp;lt;String&amp;gt;&lt;/font&gt;" style="text;html=1;strokeColor=none;fillColor=none;align=left;verticalAlign=middle;spacingLeft=4;spacingRight=4;overflow=hidden;rotatable=0;points=[[0,0.5],[1,0.5]];portConstraint=eastwest;" vertex="1" parent="Lv0ElcuT6AQo6-ZKucd3-21">
          <mxGeometry y="63" width="260" height="77" as="geometry" />
        </mxCell>
        <mxCell id="Lv0ElcuT6AQo6-ZKucd3-63" value="" style="endArrow=none;html=1;exitX=0.5;exitY=0;exitDx=0;exitDy=0;entryX=0.5;entryY=1.01;entryDx=0;entryDy=0;entryPerimeter=0;" edge="1" parent="Lv0ElcuT6AQo6-ZKucd3-57" source="Lv0ElcuT6AQo6-ZKucd3-21" target="Lv0ElcuT6AQo6-ZKucd3-27">
          <mxGeometry width="50" height="50" relative="1" as="geometry">
            <mxPoint x="-40" y="200" as="sourcePoint" />
            <mxPoint x="153" y="130" as="targetPoint" />
          </mxGeometry>
        </mxCell>
        <mxCell id="Lv0ElcuT6AQo6-ZKucd3-64" value="" style="shape=orEllipse;perimeter=ellipsePerimeter;whiteSpace=wrap;html=1;backgroundOutline=1;" vertex="1" parent="Lv0ElcuT6AQo6-ZKucd3-57">
          <mxGeometry x="140" y="145" width="20" height="20" as="geometry" />
        </mxCell>
        <mxCell id="Lv0ElcuT6AQo6-ZKucd3-67" value="calls" style="text;html=1;strokeColor=none;fillColor=none;align=center;verticalAlign=middle;whiteSpace=wrap;rounded=0;rotation=0;" vertex="1" parent="Lv0ElcuT6AQo6-ZKucd3-57">
          <mxGeometry x="40" y="150" width="40" height="20" as="geometry" />
        </mxCell>
        <mxCell id="Lv0ElcuT6AQo6-ZKucd3-68" value="returns&lt;br&gt;result" style="text;html=1;strokeColor=none;fillColor=none;align=center;verticalAlign=middle;whiteSpace=wrap;rounded=0;rotation=0;" vertex="1" parent="Lv0ElcuT6AQo6-ZKucd3-57">
          <mxGeometry x="230" y="150" width="40" height="20" as="geometry" />
        </mxCell>
        <mxCell id="Lv0ElcuT6AQo6-ZKucd3-65" value="" style="endArrow=classic;html=1;" edge="1" parent="Lv0ElcuT6AQo6-ZKucd3-57">
          <mxGeometry width="50" height="50" relative="1" as="geometry">
            <mxPoint x="80" y="145" as="sourcePoint" />
            <mxPoint x="80" y="190" as="targetPoint" />
          </mxGeometry>
        </mxCell>
        <mxCell id="Lv0ElcuT6AQo6-ZKucd3-118" value="1&amp;nbsp; &amp;nbsp;1" style="text;html=1;strokeColor=none;fillColor=none;align=center;verticalAlign=middle;whiteSpace=wrap;rounded=0;rotation=90;" vertex="1" parent="Lv0ElcuT6AQo6-ZKucd3-57">
          <mxGeometry x="140" y="170" width="37.5" height="15" as="geometry" />
        </mxCell>
        <mxCell id="Lv0ElcuT6AQo6-ZKucd3-66" value="" style="endArrow=classic;html=1;entryX=0.768;entryY=1.003;entryDx=0;entryDy=0;entryPerimeter=0;" edge="1" parent="1" target="Lv0ElcuT6AQo6-ZKucd3-27">
          <mxGeometry width="50" height="50" relative="1" as="geometry">
            <mxPoint x="580" y="350" as="sourcePoint" />
            <mxPoint x="580" y="310" as="targetPoint" />
          </mxGeometry>
        </mxCell>
        <mxCell id="Lv0ElcuT6AQo6-ZKucd3-70" value="" style="swimlane;startSize=0;" vertex="1" parent="1">
          <mxGeometry x="740" y="160" width="240" height="350" as="geometry" />
        </mxCell>
        <mxCell id="Lv0ElcuT6AQo6-ZKucd3-28" value="&amp;lt;&amp;lt;Java Class&amp;gt;&amp;gt;&lt;br&gt;&lt;font&gt;&lt;b&gt;CSVReader&lt;br&gt;&lt;/b&gt;&lt;/font&gt;&lt;font style=&quot;font-size: 8px&quot;&gt;.../data&lt;/font&gt;" style="swimlane;fontStyle=0;align=center;verticalAlign=top;childLayout=stackLayout;horizontal=1;startSize=55;horizontalStack=0;resizeParent=1;resizeParentMax=0;resizeLast=0;collapsible=0;marginBottom=0;html=1;" vertex="1" parent="Lv0ElcuT6AQo6-ZKucd3-70">
          <mxGeometry x="20" y="20" width="200" height="220" as="geometry" />
        </mxCell>
        <mxCell id="Lv0ElcuT6AQo6-ZKucd3-29" value="&lt;font style=&quot;font-size: 10px&quot;&gt;- br: BufferedReader&lt;br&gt;- line: String&lt;br&gt;- values: String[]&lt;br&gt;- districtName: String&lt;br&gt;- f: File&lt;br&gt;- fileArray: File[]&lt;br&gt;- cvsReader: CVSReader&lt;br&gt;&lt;/font&gt;" style="text;html=1;strokeColor=none;fillColor=none;align=left;verticalAlign=middle;spacingLeft=4;spacingRight=4;overflow=hidden;rotatable=0;points=[[0,0.5],[1,0.5]];portConstraint=eastwest;" vertex="1" parent="Lv0ElcuT6AQo6-ZKucd3-28">
          <mxGeometry y="55" width="200" height="105" as="geometry" />
        </mxCell>
        <mxCell id="Lv0ElcuT6AQo6-ZKucd3-30" value="" style="line;strokeWidth=1;fillColor=none;align=left;verticalAlign=middle;spacingTop=-1;spacingLeft=3;spacingRight=3;rotatable=0;labelPosition=right;points=[];portConstraint=eastwest;" vertex="1" parent="Lv0ElcuT6AQo6-ZKucd3-28">
          <mxGeometry y="160" width="200" height="8" as="geometry" />
        </mxCell>
        <mxCell id="Lv0ElcuT6AQo6-ZKucd3-31" value="&lt;span style=&quot;font-size: 10px&quot;&gt;+ CSVReader()&lt;br&gt;&lt;u&gt;+ getInstance: CSVReader&lt;/u&gt;&lt;br&gt;+ getData(): ArrayList&amp;lt;ResultList&amp;gt;&lt;br&gt;&lt;/span&gt;" style="text;html=1;strokeColor=none;fillColor=none;align=left;verticalAlign=middle;spacingLeft=4;spacingRight=4;overflow=hidden;rotatable=0;points=[[0,0.5],[1,0.5]];portConstraint=eastwest;" vertex="1" parent="Lv0ElcuT6AQo6-ZKucd3-28">
          <mxGeometry y="168" width="200" height="52" as="geometry" />
        </mxCell>
        <mxCell id="Lv0ElcuT6AQo6-ZKucd3-73" value="" style="endArrow=classic;html=1;entryX=-0.001;entryY=0.113;entryDx=0;entryDy=0;entryPerimeter=0;" edge="1" parent="1" target="Lv0ElcuT6AQo6-ZKucd3-70">
          <mxGeometry width="50" height="50" relative="1" as="geometry">
            <mxPoint x="660" y="200" as="sourcePoint" />
            <mxPoint x="710" y="150" as="targetPoint" />
          </mxGeometry>
        </mxCell>
        <mxCell id="Lv0ElcuT6AQo6-ZKucd3-74" value="" style="endArrow=classic;html=1;entryX=1;entryY=0.25;entryDx=0;entryDy=0;exitX=0;exitY=0.25;exitDx=0;exitDy=0;" edge="1" parent="1" source="Lv0ElcuT6AQo6-ZKucd3-70" target="Lv0ElcuT6AQo6-ZKucd3-57">
          <mxGeometry width="50" height="50" relative="1" as="geometry">
            <mxPoint x="670" y="210" as="sourcePoint" />
            <mxPoint x="749.7600000000002" y="209.55000000000007" as="targetPoint" />
          </mxGeometry>
        </mxCell>
        <mxCell id="Lv0ElcuT6AQo6-ZKucd3-75" value="requests&lt;br&gt;Data" style="text;html=1;strokeColor=none;fillColor=none;align=center;verticalAlign=middle;whiteSpace=wrap;rounded=0;" vertex="1" parent="1">
          <mxGeometry x="680" y="170" width="40" height="20" as="geometry" />
        </mxCell>
        <mxCell id="Lv0ElcuT6AQo6-ZKucd3-76" value="sends List of all results" style="text;html=1;strokeColor=none;fillColor=none;align=center;verticalAlign=middle;whiteSpace=wrap;rounded=0;" vertex="1" parent="1">
          <mxGeometry x="680" y="270" width="40" height="20" as="geometry" />
        </mxCell>
        <mxCell id="Lv0ElcuT6AQo6-ZKucd3-77" value="" style="endArrow=classic;html=1;entryX=-0.001;entryY=0.113;entryDx=0;entryDy=0;entryPerimeter=0;" edge="1" parent="1">
          <mxGeometry width="50" height="50" relative="1" as="geometry">
            <mxPoint x="280" y="200" as="sourcePoint" />
            <mxPoint x="359.7600000000002" y="199.55000000000007" as="targetPoint" />
          </mxGeometry>
        </mxCell>
        <mxCell id="Lv0ElcuT6AQo6-ZKucd3-78" value="" style="endArrow=classic;html=1;entryX=1;entryY=0.25;entryDx=0;entryDy=0;exitX=0;exitY=0.25;exitDx=0;exitDy=0;" edge="1" parent="1">
          <mxGeometry width="50" height="50" relative="1" as="geometry">
            <mxPoint x="360" y="247.5" as="sourcePoint" />
            <mxPoint x="280" y="247.5" as="targetPoint" />
          </mxGeometry>
        </mxCell>
        <mxCell id="Lv0ElcuT6AQo6-ZKucd3-79" value="requests&lt;br&gt;Data" style="text;html=1;strokeColor=none;fillColor=none;align=center;verticalAlign=middle;whiteSpace=wrap;rounded=0;" vertex="1" parent="1">
          <mxGeometry x="300" y="170" width="40" height="20" as="geometry" />
        </mxCell>
        <mxCell id="Lv0ElcuT6AQo6-ZKucd3-80" value="sends List of all results" style="text;html=1;strokeColor=none;fillColor=none;align=center;verticalAlign=middle;whiteSpace=wrap;rounded=0;" vertex="1" parent="1">
          <mxGeometry x="300" y="270" width="40" height="20" as="geometry" />
        </mxCell>
        <mxCell id="Lv0ElcuT6AQo6-ZKucd3-84" value="" style="endArrow=none;html=1;entryX=0.5;entryY=0;entryDx=0;entryDy=0;" edge="1" parent="1" target="Lv0ElcuT6AQo6-ZKucd3-81">
          <mxGeometry width="50" height="50" relative="1" as="geometry">
            <mxPoint x="120" y="250" as="sourcePoint" />
            <mxPoint x="180" y="340" as="targetPoint" />
          </mxGeometry>
        </mxCell>
        <mxCell id="Lv0ElcuT6AQo6-ZKucd3-94" value="" style="swimlane;startSize=0;" vertex="1" parent="1">
          <mxGeometry x="175" y="560" width="670" height="240" as="geometry">
            <mxRectangle x="175" y="560" width="50" height="40" as="alternateBounds" />
          </mxGeometry>
        </mxCell>
        <mxCell id="Lv0ElcuT6AQo6-ZKucd3-5" value="&amp;lt;&amp;lt;Java Class&amp;gt;&amp;gt;&lt;br&gt;&lt;b&gt;ResultList&lt;br&gt;&lt;/b&gt;&lt;span style=&quot;font-size: 8px&quot;&gt;.../datamodel&lt;/span&gt;&lt;b&gt;&lt;br&gt;&lt;/b&gt;" style="swimlane;fontStyle=0;align=center;verticalAlign=top;childLayout=stackLayout;horizontal=1;startSize=55;horizontalStack=0;resizeParent=1;resizeParentMax=0;resizeLast=0;collapsible=0;marginBottom=0;html=1;" vertex="1" parent="Lv0ElcuT6AQo6-ZKucd3-94">
          <mxGeometry x="20" y="16.5" width="190" height="170" as="geometry" />
        </mxCell>
        <mxCell id="Lv0ElcuT6AQo6-ZKucd3-7" value="&lt;font style=&quot;font-size: 10px&quot;&gt;&lt;u&gt;- serialVersionUID: long&lt;/u&gt;&lt;br&gt;- districtName: String&lt;br&gt;- results: ArrayList&amp;lt;ResultMap&amp;gt;&lt;/font&gt;" style="text;html=1;strokeColor=none;fillColor=none;align=left;verticalAlign=middle;spacingLeft=4;spacingRight=4;overflow=hidden;rotatable=0;points=[[0,0.5],[1,0.5]];portConstraint=eastwest;" vertex="1" parent="Lv0ElcuT6AQo6-ZKucd3-5">
          <mxGeometry y="55" width="190" height="45" as="geometry" />
        </mxCell>
        <mxCell id="Lv0ElcuT6AQo6-ZKucd3-10" value="" style="line;strokeWidth=1;fillColor=none;align=left;verticalAlign=middle;spacingTop=-1;spacingLeft=3;spacingRight=3;rotatable=0;labelPosition=right;points=[];portConstraint=eastwest;" vertex="1" parent="Lv0ElcuT6AQo6-ZKucd3-5">
          <mxGeometry y="100" width="190" height="8" as="geometry" />
        </mxCell>
        <mxCell id="Lv0ElcuT6AQo6-ZKucd3-12" value="&lt;font style=&quot;font-size: 10px&quot;&gt;+ ResultList(String)&lt;br&gt;+ getName(): String&lt;br&gt;+ addResult(ResultMap): void&lt;br&gt;+ getResults(): ArrayList&amp;lt;ResultMap&amp;gt;&lt;/font&gt;" style="text;html=1;strokeColor=none;fillColor=none;align=left;verticalAlign=middle;spacingLeft=4;spacingRight=4;overflow=hidden;rotatable=0;points=[[0,0.5],[1,0.5]];portConstraint=eastwest;" vertex="1" parent="Lv0ElcuT6AQo6-ZKucd3-5">
          <mxGeometry y="108" width="190" height="62" as="geometry" />
        </mxCell>
        <mxCell id="Lv0ElcuT6AQo6-ZKucd3-13" value="&amp;lt;&amp;lt;Java Class&amp;gt;&amp;gt;&lt;br&gt;&lt;b&gt;ResultMap&lt;/b&gt;&lt;br&gt;&lt;font style=&quot;font-size: 8px&quot;&gt;.../datamodel&lt;/font&gt;" style="swimlane;fontStyle=0;align=center;verticalAlign=top;childLayout=stackLayout;horizontal=1;startSize=55;horizontalStack=0;resizeParent=1;resizeParentMax=0;resizeLast=0;collapsible=0;marginBottom=0;html=1;" vertex="1" parent="Lv0ElcuT6AQo6-ZKucd3-94">
          <mxGeometry x="250" y="16.5" width="190" height="200" as="geometry" />
        </mxCell>
        <mxCell id="Lv0ElcuT6AQo6-ZKucd3-14" value="&lt;font style=&quot;font-size: 10px&quot;&gt;- name: String&lt;br&gt;- votes: int&lt;br&gt;- percentage: double&lt;/font&gt;" style="text;html=1;strokeColor=none;fillColor=none;align=left;verticalAlign=middle;spacingLeft=4;spacingRight=4;overflow=hidden;rotatable=0;points=[[0,0.5],[1,0.5]];portConstraint=eastwest;" vertex="1" parent="Lv0ElcuT6AQo6-ZKucd3-13">
          <mxGeometry y="55" width="190" height="45" as="geometry" />
        </mxCell>
        <mxCell id="Lv0ElcuT6AQo6-ZKucd3-15" value="" style="line;strokeWidth=1;fillColor=none;align=left;verticalAlign=middle;spacingTop=-1;spacingLeft=3;spacingRight=3;rotatable=0;labelPosition=right;points=[];portConstraint=eastwest;" vertex="1" parent="Lv0ElcuT6AQo6-ZKucd3-13">
          <mxGeometry y="100" width="190" height="8" as="geometry" />
        </mxCell>
        <mxCell id="Lv0ElcuT6AQo6-ZKucd3-16" value="&lt;font style=&quot;font-size: 10px&quot;&gt;+ ResultMap(String, int)&lt;br&gt;+ getName(): String&lt;br&gt;+ getVoteCount(): int&lt;br&gt;+ addVotes(int): void&lt;br&gt;+ setPercentage(double): void&lt;br&gt;+ getPercentage: double&lt;/font&gt;" style="text;html=1;strokeColor=none;fillColor=none;align=left;verticalAlign=middle;spacingLeft=4;spacingRight=4;overflow=hidden;rotatable=0;points=[[0,0.5],[1,0.5]];portConstraint=eastwest;" vertex="1" parent="Lv0ElcuT6AQo6-ZKucd3-13">
          <mxGeometry y="108" width="190" height="92" as="geometry" />
        </mxCell>
        <mxCell id="Lv0ElcuT6AQo6-ZKucd3-17" value="&amp;lt;&amp;lt;Java Class&amp;gt;&amp;gt;&lt;br&gt;&lt;b&gt;ResultComparator&lt;br&gt;&lt;/b&gt;&lt;span style=&quot;font-size: 8px&quot;&gt;.../datamodel&lt;/span&gt;&lt;b&gt;&lt;br&gt;&lt;/b&gt;" style="swimlane;fontStyle=0;align=center;verticalAlign=top;childLayout=stackLayout;horizontal=1;startSize=55;horizontalStack=0;resizeParent=1;resizeParentMax=0;resizeLast=0;collapsible=0;marginBottom=0;html=1;" vertex="1" parent="Lv0ElcuT6AQo6-ZKucd3-94">
          <mxGeometry x="460" y="16.5" width="190" height="100" as="geometry" />
        </mxCell>
        <mxCell id="Lv0ElcuT6AQo6-ZKucd3-19" value="" style="line;strokeWidth=1;fillColor=none;align=left;verticalAlign=middle;spacingTop=-1;spacingLeft=3;spacingRight=3;rotatable=0;labelPosition=right;points=[];portConstraint=eastwest;" vertex="1" parent="Lv0ElcuT6AQo6-ZKucd3-17">
          <mxGeometry y="55" width="190" height="8" as="geometry" />
        </mxCell>
        <mxCell id="Lv0ElcuT6AQo6-ZKucd3-20" value="&lt;font style=&quot;font-size: 10px&quot;&gt;+ ResultComparator()&lt;br&gt;+ compare(ResultMap, ResultMap): int&lt;/font&gt;" style="text;html=1;strokeColor=none;fillColor=none;align=left;verticalAlign=middle;spacingLeft=4;spacingRight=4;overflow=hidden;rotatable=0;points=[[0,0.5],[1,0.5]];portConstraint=eastwest;" vertex="1" parent="Lv0ElcuT6AQo6-ZKucd3-17">
          <mxGeometry y="63" width="190" height="37" as="geometry" />
        </mxCell>
        <mxCell id="Lv0ElcuT6AQo6-ZKucd3-95" value="" style="endArrow=none;html=1;exitX=1;exitY=0.5;exitDx=0;exitDy=0;entryX=0;entryY=0.5;entryDx=0;entryDy=0;" edge="1" parent="Lv0ElcuT6AQo6-ZKucd3-94" source="Lv0ElcuT6AQo6-ZKucd3-7" target="Lv0ElcuT6AQo6-ZKucd3-14">
          <mxGeometry width="50" height="50" relative="1" as="geometry">
            <mxPoint x="350" y="130" as="sourcePoint" />
            <mxPoint x="400" y="80" as="targetPoint" />
          </mxGeometry>
        </mxCell>
        <mxCell id="Lv0ElcuT6AQo6-ZKucd3-96" value="&lt;font style=&quot;font-size: 9px&quot;&gt;1&amp;nbsp; &amp;nbsp; &amp;nbsp;0...n&lt;/font&gt;" style="text;html=1;strokeColor=none;fillColor=none;align=center;verticalAlign=middle;whiteSpace=wrap;rounded=0;" vertex="1" parent="Lv0ElcuT6AQo6-ZKucd3-94">
          <mxGeometry x="210" y="90" width="40" height="20" as="geometry" />
        </mxCell>
        <mxCell id="Lv0ElcuT6AQo6-ZKucd3-97" value="" style="endArrow=classic;html=1;exitX=0.502;exitY=1.049;exitDx=0;exitDy=0;exitPerimeter=0;" edge="1" parent="1" source="Lv0ElcuT6AQo6-ZKucd3-47">
          <mxGeometry width="50" height="50" relative="1" as="geometry">
            <mxPoint x="220" y="200" as="sourcePoint" />
            <mxPoint x="100" y="180" as="targetPoint" />
          </mxGeometry>
        </mxCell>
        <mxCell id="Lv0ElcuT6AQo6-ZKucd3-99" value="starts" style="text;html=1;strokeColor=none;fillColor=none;align=center;verticalAlign=middle;whiteSpace=wrap;rounded=0;" vertex="1" parent="1">
          <mxGeometry x="100" y="130" width="40" height="20" as="geometry" />
        </mxCell>
        <mxCell id="Lv0ElcuT6AQo6-ZKucd3-100" value="" style="endArrow=none;html=1;exitX=0.5;exitY=1;exitDx=0;exitDy=0;entryX=0.5;entryY=0;entryDx=0;entryDy=0;" edge="1" parent="1" source="Lv0ElcuT6AQo6-ZKucd3-57" target="Lv0ElcuT6AQo6-ZKucd3-94">
          <mxGeometry width="50" height="50" relative="1" as="geometry">
            <mxPoint x="450" y="600" as="sourcePoint" />
            <mxPoint x="500" y="550" as="targetPoint" />
          </mxGeometry>
        </mxCell>
        <mxCell id="Lv0ElcuT6AQo6-ZKucd3-101" value="" style="endArrow=none;html=1;entryX=0.03;entryY=-0.004;entryDx=0;entryDy=0;entryPerimeter=0;exitX=0.645;exitY=1.003;exitDx=0;exitDy=0;exitPerimeter=0;" edge="1" parent="1" source="Lv0ElcuT6AQo6-ZKucd3-49" target="Lv0ElcuT6AQo6-ZKucd3-94">
          <mxGeometry width="50" height="50" relative="1" as="geometry">
            <mxPoint x="450" y="600" as="sourcePoint" />
            <mxPoint x="500" y="550" as="targetPoint" />
          </mxGeometry>
        </mxCell>
        <mxCell id="Lv0ElcuT6AQo6-ZKucd3-102" value="" style="endArrow=none;html=1;entryX=0.03;entryY=-0.004;entryDx=0;entryDy=0;entryPerimeter=0;exitX=0.645;exitY=1.003;exitDx=0;exitDy=0;exitPerimeter=0;" edge="1" parent="1">
          <mxGeometry width="50" height="50" relative="1" as="geometry">
            <mxPoint x="820" y="512.0100000000001" as="sourcePoint" />
            <mxPoint x="820.3000000000002" y="560" as="targetPoint" />
          </mxGeometry>
        </mxCell>
        <mxCell id="Lv0ElcuT6AQo6-ZKucd3-103" value="has access to" style="text;html=1;strokeColor=none;fillColor=none;align=center;verticalAlign=middle;whiteSpace=wrap;rounded=0;" vertex="1" parent="1">
          <mxGeometry x="190" y="520" width="90" height="20" as="geometry" />
        </mxCell>
        <mxCell id="Lv0ElcuT6AQo6-ZKucd3-104" value="has access to" style="text;html=1;strokeColor=none;fillColor=none;align=center;verticalAlign=middle;whiteSpace=wrap;rounded=0;" vertex="1" parent="1">
          <mxGeometry x="510" y="520" width="90" height="20" as="geometry" />
        </mxCell>
        <mxCell id="Lv0ElcuT6AQo6-ZKucd3-105" value="has access to" style="text;html=1;strokeColor=none;fillColor=none;align=center;verticalAlign=middle;whiteSpace=wrap;rounded=0;" vertex="1" parent="1">
          <mxGeometry x="815" y="520" width="90" height="20" as="geometry" />
        </mxCell>
        <mxCell id="Lv0ElcuT6AQo6-ZKucd3-108" value="" style="endArrow=none;html=1;entryX=0.471;entryY=1.016;entryDx=0;entryDy=0;entryPerimeter=0;" edge="1" parent="1" target="Lv0ElcuT6AQo6-ZKucd3-35">
          <mxGeometry width="50" height="50" relative="1" as="geometry">
            <mxPoint x="-660" y="640" as="sourcePoint" />
            <mxPoint x="-610" y="590" as="targetPoint" />
          </mxGeometry>
        </mxCell>
        <mxCell id="Lv0ElcuT6AQo6-ZKucd3-109" value="" style="shape=orEllipse;perimeter=ellipsePerimeter;whiteSpace=wrap;html=1;backgroundOutline=1;" vertex="1" parent="1">
          <mxGeometry x="-670" y="595" width="20" height="20" as="geometry" />
        </mxCell>
        <mxCell id="Lv0ElcuT6AQo6-ZKucd3-110" value="" style="endArrow=classic;html=1;exitX=1;exitY=0.11;exitDx=0;exitDy=0;exitPerimeter=0;entryX=0;entryY=0.102;entryDx=0;entryDy=0;entryPerimeter=0;" edge="1" parent="1" source="Lv0ElcuT6AQo6-ZKucd3-32" target="Lv0ElcuT6AQo6-ZKucd3-40">
          <mxGeometry width="50" height="50" relative="1" as="geometry">
            <mxPoint x="-630" y="530" as="sourcePoint" />
            <mxPoint x="-580" y="480" as="targetPoint" />
          </mxGeometry>
        </mxCell>
        <mxCell id="Lv0ElcuT6AQo6-ZKucd3-111" value="manipulates" style="text;html=1;strokeColor=none;fillColor=none;align=center;verticalAlign=middle;whiteSpace=wrap;rounded=0;" vertex="1" parent="1">
          <mxGeometry x="-520" y="400" width="40" height="20" as="geometry" />
        </mxCell>
        <mxCell id="Lv0ElcuT6AQo6-ZKucd3-112" value="" style="endArrow=classic;html=1;exitX=1;exitY=0.11;exitDx=0;exitDy=0;exitPerimeter=0;" edge="1" parent="1">
          <mxGeometry width="50" height="50" relative="1" as="geometry">
            <mxPoint x="-405" y="399.4599999999999" as="sourcePoint" />
            <mxPoint x="-405" y="312" as="targetPoint" />
          </mxGeometry>
        </mxCell>
        <mxCell id="Lv0ElcuT6AQo6-ZKucd3-113" value="updates" style="text;html=1;strokeColor=none;fillColor=none;align=center;verticalAlign=middle;whiteSpace=wrap;rounded=0;" vertex="1" parent="1">
          <mxGeometry x="-390" y="350" width="40" height="20" as="geometry" />
        </mxCell>
        <mxCell id="Lv0ElcuT6AQo6-ZKucd3-116" value="" style="endArrow=classic;html=1;exitX=1;exitY=0.11;exitDx=0;exitDy=0;exitPerimeter=0;entryX=0.789;entryY=-0.007;entryDx=0;entryDy=0;entryPerimeter=0;" edge="1" parent="1" target="Lv0ElcuT6AQo6-ZKucd3-32">
          <mxGeometry width="50" height="50" relative="1" as="geometry">
            <mxPoint x="-600" y="309.99999999999994" as="sourcePoint" />
            <mxPoint x="-600" y="222.54000000000002" as="targetPoint" />
          </mxGeometry>
        </mxCell>
        <mxCell id="Lv0ElcuT6AQo6-ZKucd3-117" value="sends user input" style="text;html=1;strokeColor=none;fillColor=none;align=center;verticalAlign=middle;whiteSpace=wrap;rounded=0;" vertex="1" parent="1">
          <mxGeometry x="-650" y="340" width="40" height="20" as="geometry" />
        </mxCell>
        <mxCell id="Lv0ElcuT6AQo6-ZKucd3-119" value="1&amp;nbsp; &amp;nbsp; &amp;nbsp; &amp;nbsp; &amp;nbsp; &amp;nbsp; &amp;nbsp; &amp;nbsp; &amp;nbsp; &amp;nbsp; &amp;nbsp; &amp;nbsp; &amp;nbsp; &amp;nbsp;1" style="text;html=1;strokeColor=none;fillColor=none;align=center;verticalAlign=middle;whiteSpace=wrap;rounded=0;" vertex="1" parent="1">
          <mxGeometry x="-565" y="420" width="130" height="20" as="geometry" />
        </mxCell>
        <mxCell id="Lv0ElcuT6AQo6-ZKucd3-121" value="1&amp;nbsp; &amp;nbsp; &amp;nbsp; &amp;nbsp; &amp;nbsp; &amp;nbsp; &amp;nbsp; &amp;nbsp; &amp;nbsp; &amp;nbsp; 1" style="text;html=1;strokeColor=none;fillColor=none;align=center;verticalAlign=middle;whiteSpace=wrap;rounded=0;rotation=90;" vertex="1" parent="1">
          <mxGeometry x="-634.5" y="344.5" width="97" height="16" as="geometry" />
        </mxCell>
        <mxCell id="Lv0ElcuT6AQo6-ZKucd3-122" value="1&amp;nbsp; &amp;nbsp; &amp;nbsp; &amp;nbsp; &amp;nbsp; &amp;nbsp; &amp;nbsp; &amp;nbsp; &amp;nbsp; &amp;nbsp; 1" style="text;html=1;strokeColor=none;fillColor=none;align=center;verticalAlign=middle;whiteSpace=wrap;rounded=0;rotation=90;" vertex="1" parent="1">
          <mxGeometry x="-467" y="350" width="97" height="16" as="geometry" />
        </mxCell>
        <mxCell id="Lv0ElcuT6AQo6-ZKucd3-123" value="1&amp;nbsp; &amp;nbsp;1" style="text;html=1;strokeColor=none;fillColor=none;align=center;verticalAlign=middle;whiteSpace=wrap;rounded=0;rotation=90;" vertex="1" parent="1">
          <mxGeometry x="-670" y="615" width="40" height="16" as="geometry" />
        </mxCell>
      </root>
    </mxGraphModel>
  </diagram>
</mxfile>
